PathFileType	4	(X/Y/Z)	46_2_90_p1_0-503.trc
DataRate	CameraRate	NumFrames	NumMarkers	Units	OrigDataRate	OrigDataStartFrame	OrigNumFrames
59.0	59.0	5	27	m	59.0	378	504
Frame#	Time	RHip			RKnee			RAnkle			RBigToe			RSmallToe			RHeel			LHip			LKnee			LAnkle			LBigToe			LSmallToe			LHeel			Neck			Head			Nose			RShoulder			RElbow			RWrist			RThumb			RIndex			RPinky			LShoulder			LElbow			LWrist			LThumb			LIndex			LPinky			
		X1	Y1	Z1	X2	Y2	Z2	X3	Y3	Z3	X4	Y4	Z4	X5	Y5	Z5	X6	Y6	Z6	X7	Y7	Z7	X8	Y8	Z8	X9	Y9	Z9	X10	Y10	Z10	X11	Y11	Z11	X12	Y12	Z12	X13	Y13	Z13	X14	Y14	Z14	X15	Y15	Z15	X16	Y16	Z16	X17	Y17	Z17	X18	Y18	Z18	X19	Y19	Z19	X20	Y20	Z20	X21	Y21	Z21	X22	Y22	Z22	X23	Y23	Z23	X24	Y24	Z24	X25	Y25	Z25	X26	Y26	Z26	X27	Y27	Z27	
378	6.406779661016949	0.32656525675388864	0.42265430467932275	0.640801606002097	0.3577020965017704	0.41144727442430423	1.086542611344323	0.35034839540604124	0.46412516122831354	1.5183362601701043	0.35985378060176176	0.34761592247300876	1.5204595380048234	0.406524210571616	0.34172851086276135	1.5084929893944246	0.3238752205603374	0.5771444018099	1.6063912079338494	0.14828727240986783	0.37993047457423934	0.6800797769405512	0.15098691906923264	0.4524313883075557	1.1240230324737874	0.14686102403639714	0.5074625159282353	1.5376328490414604	0.18757180074633162	0.29708043061086936	1.4919124714083354	0.13335103372389912	0.36004638121661914	1.531917389700025	0.14608256114898044	0.564123646789266	1.5890061117899155	0.21111568245926587	0.3352281899095479	0.2011028607303042	0.23190287338175525	0.13969334306679693	-0.030476887683115593	0.2897832159474243	0.2207700285202361	0.11024604922018194	0.28628910732267265	0.45641368549495787	0.1879305946805846	0.3980791986837215	0.5419106324319004	0.314673809929047	0.4721984802034626	0.3889058652723054	0.32524441447691554	0.4693794230764786	0.270679590805451	0.31704295547253797	0.4861857264866664	0.2710698015533852	0.320465873930647	0.5030584166732629	0.27319862260756156	0.3474097689817103	0.10278187960274375	0.28397052124228506	0.2612726961795534	0.18561018897340864	0.24296896173752736	0.4786188286012448	0.3916914362154611	0.27713387842257614	0.41215947564250804	0.44522330247458586	0.2777120731056721	0.340996720556407	0.46737805922422904	0.2793359219970102	0.3296749364280269	0.4936873511846268	0.29329118874850724	0.3669453899294952
379	6.423728813559322	0.32601014111635646	0.42259149996137707	0.6449639327356357	0.3573373272214921	0.41260450907780066	1.0830385600736867	0.3539964017304937	0.4778323369586546	1.520906527129957	0.3600320640741414	0.3477125088759587	1.5208053625499305	0.40919996815395504	0.3539145929041546	1.515422662421151	0.32468475239401606	0.5792937376652135	1.6116288476749918	0.14644184841023558	0.36784285973155745	0.6727419326065553	0.15098303398006174	0.45251496490627446	1.1241472114760258	0.14688699613528622	0.5074722142378632	1.537692450379716	0.18826046875732982	0.29896363548032723	1.4974235862796466	0.13450344616219032	0.3594614762686	1.5276210963614838	0.146313342554333	0.5628435580288567	1.5926114945177743	0.21065756940657845	0.3360007125984318	0.20535233147654053	0.22479415499358044	0.1352026434208071	-0.025080100963869062	0.27351237401065487	0.20668030081381816	0.11707914044563938	0.2863304506844646	0.4543184822544748	0.17864761978311092	0.4108636361992447	0.5413177345659281	0.30469665839032756	0.4770796143550629	0.37078947591797334	0.3049577365016027	0.4679074581114251	0.2781548841179765	0.3142790732204081	0.48574244991678794	0.27018752909860494	0.3119209558917882	0.5021434342723591	0.2718965905330978	0.33999160274483686	0.10148149789598111	0.27095347991255897	0.2663953835784326	0.18724635691670408	0.25534163155170764	0.4778385533726265	0.39174165657819693	0.2768387329556908	0.4119654813588784	0.4414689116026925	0.30484849456260277	0.3509391695822256	0.4673000261651086	0.2806627767628499	0.326206084838405	0.49080426276526623	0.2843920952995453	0.35689089086393555
380	6.440677966101695	0.3261361765305715	0.4222350816634861	0.6451592311561922	0.3573055648450023	0.41256811816551203	1.0830231938813832	0.3539674763777646	0.4778198646578891	1.520831492239686	0.3599464078521732	0.3475693786386847	1.520484614695905	0.40922514655882697	0.3538639770622663	1.5153000377525518	0.3238617734334516	0.5772677727159486	1.6064963726169914	0.14818788487534068	0.3800625752308763	0.6802022950971466	0.15103730902492593	0.45256679363341207	1.1240672579501667	0.1468194337958009	0.5073819379942477	1.537582991241971	0.18925695852205157	0.31185499931660504	1.5045709802203704	0.13379642728156144	0.36132467470647656	1.5238875271331311	0.14594753548482117	0.5642790548281961	1.5891216362588374	0.21043251715367053	0.3350860154820054	0.20837174276863873	0.22303667771419966	0.12528457252262026	-0.018634152929557574	0.27974474105668523	0.19473497136461107	0.1246547699519727	0.28562142772408766	0.4558153384011251	0.1864803316617294	0.41288494013295096	0.5143754643984091	0.29387279875030187	0.46715221138469376	0.3813804321721578	0.29727082081539447	0.4730107970756953	0.27180186890888136	0.30992323546021155	0.48883607497658127	0.2718153885029213	0.3123411042434488	0.5022929192259794	0.2728135129454643	0.33274390088264905	0.10266014273470522	0.28323328027026257	0.2683054449373917	0.18912502161409417	0.2669879048934491	0.4804121258191988	0.39591699081302195	0.2784977819245908	0.4120098230999734	0.448069845128675	0.27765513586985074	0.3367310134098507	0.47527579363606587	0.281498854695984	0.325732840052897	0.49021360973403494	0.2852728564471626	0.3527410965252716
381	6.4576271186440675	0.32663128472172853	0.4227062135544977	0.6408785496542099	0.358478873563499	0.4114296213156567	1.0820383030231282	0.3540139932289681	0.47768575396913643	1.5207997523860128	0.35994438262511774	0.347465498740065	1.5203699065638097	0.40924278479869625	0.35385171305755087	1.515237415134708	0.31958144367470265	0.573718859058813	1.604823663774215	0.14888546481024367	0.3799384104118003	0.6762450723779453	0.15202704772504907	0.45219297533196434	1.1191431511818155	0.14678545205062457	0.5077688987480308	1.5376103815268762	0.18756930648263606	0.2975882928401326	1.4922993660664625	0.13378157605445876	0.3613895560525421	1.5237353084045102	0.14586449690356937	0.5646872373733137	1.5892018516390694	0.21015567006647254	0.3347442348973595	0.21206524956387712	0.21700110288318766	0.13527317320074503	-0.015347136870693652	0.270764960599884	0.19487591579120805	0.12325699198928776	0.2847443994705527	0.454647821575251	0.18277930453628183	0.4026911974986987	0.5412495595334247	0.30145553961265037	0.4668205277415106	0.3960750885432055	0.28868345626421343	0.4719515152808071	0.2703130992616665	0.2944421161545149	0.4861426292291463	0.27027405114080155	0.2951216743960957	0.5065094688625499	0.26055279127401443	0.3173115849855993	0.10183053483794093	0.2709702134949589	0.2633093565579399	0.19887497445851743	0.2593726064704772	0.4672327707864996	0.40559625079969075	0.2662350554527575	0.4022454742712836	0.4520849451626836	0.2650930884924193	0.32786190976539875	0.4804466973964041	0.27089408737043047	0.3198132740608745	0.4961197550465911	0.28534543252821765	0.33348436266556464
382	6.47457627118644	0.32615710235362116	0.42105784197509544	0.6367171731893593	0.3585323224901189	0.41138071472997967	1.0819758065260114	0.35398470723836	0.47780478890040096	1.5208027881319732	0.3641251736232318	0.3503084048346673	1.5216807432581152	0.40655921400384126	0.3417243235140339	1.5086320878602701	0.31958129827601456	0.5737779188293753	1.6048505960065713	0.1472569814241223	0.366824556963427	0.6726652863310023	0.15206936558679485	0.4522651332873113	1.1190826208197644	0.14679142034792653	0.5075813456228284	1.5376246242177856	0.18752874948156298	0.2974349535477604	1.4920998313497553	0.13380352565541517	0.3613215356431151	1.5237062581264942	0.14589502035028076	0.5646007210316738	1.5892370563964064	0.21101912116217175	0.33376067730089465	0.21823867567916747	0.21511956784082242	0.12354310657315266	-0.012408496468389898	0.27437609669671065	0.20696586710669557	0.1408783868733031	0.2790502657804725	0.46775934743898184	0.18498949158864517	0.403736506911163	0.5595252614648047	0.29413457563732814	0.46575214542500865	0.39683100589221226	0.2833749950737591	0.4721239168406373	0.2707785868434547	0.2903569219420103	0.48645542947493453	0.27106274044936746	0.2913374629037198	0.5015140221974383	0.272732452181264	0.3198066139498054	0.1005505185184419	0.25849379567605857	0.26507789073682436	0.19908255987858156	0.25895778610551073	0.46696783786556234	0.410477370839141	0.254835860155758	0.4035662868557944	0.4495444072204178	0.26280476199381425	0.324133285791458	0.47590457507390976	0.2692387322214693	0.31675276817831277	0.49371744515681476	0.27408015277352055	0.33522923227704937
